<?xml version="1.0" encoding="UTF-8" standalone="no"?>
<svg
   xmlns:dc="http://purl.org/dc/elements/1.1/"
   xmlns:cc="http://creativecommons.org/ns#"
   xmlns:rdf="http://www.w3.org/1999/02/22-rdf-syntax-ns#"
   xmlns:svg="http://www.w3.org/2000/svg"
   xmlns="http://www.w3.org/2000/svg"
   id="svg54"
   version="1.1"
   viewBox="0 0 317.49999 317.50001"
   height="1200"
   width="1200">
  <defs
     id="defs48" />
  <metadata
     id="metadata51">
    <rdf:RDF>
      <cc:Work
         rdf:about="">
        <dc:format>image/svg+xml</dc:format>
        <dc:type
           rdf:resource="http://purl.org/dc/dcmitype/StillImage" />
        <dc:title></dc:title>
      </cc:Work>
    </rdf:RDF>
  </metadata>
  <g
     id="layer1">
    <path
       transform="scale(0.26458333)"
       d="m 380.32031,512.07422 c -3.77514,0.069 -7.10974,0.57588 -9.05859,1.57031 -6.65157,3.39402 -10.42632,8.37035 -11.1543,14.70703 -0.89379,7.78001 1.74297,13.60582 12.66211,27.99414 12.96861,17.08895 15.348,24.05072 11.02539,32.25196 -5.79685,10.99835 -24.07031,5.87992 -24.07031,-6.74219 0,-3.91257 0.84753,-5.76137 3.61914,-7.90039 1.98971,-1.53559 4.76927,-2.79102 6.17773,-2.79102 3.68926,0 3.14945,-3.39262 -1.05664,-6.63867 -5.57441,-4.30208 -13.56413,-3.77783 -18.30468,1.20117 -2.09107,2.19625 -4.19295,5.91616 -4.67188,8.26563 -2.07166,10.16277 6.41446,23.46856 17.40625,27.28906 13.11178,4.55735 29.89397,1.57361 36.33399,-6.45898 9.78009,-12.19873 6.99968,-24.73831 -10.15821,-45.8125 -4.79304,-5.88703 -9.39961,-12.73915 -10.23633,-15.22657 -2.82887,-8.40982 1.14402,-15.15625 8.92383,-15.15625 7.99639,0 11.84103,7.83832 7.63086,15.55664 -2.22391,4.07698 0.10913,7.34375 5.24414,7.34375 12.57404,0 10.93542,-20.18324 -2.14258,-26.39648 -4.36353,-2.0731 -11.87802,-3.17171 -18.16992,-3.05664 z m 339.13086,14.63672 c -8.68422,0 -13.40431,12.05859 -6.56055,16.76172 4.38921,3.01629 8.93108,2.58766 12.80079,-1.20899 6.29076,-6.172 2.52721,-15.55273 -6.24024,-15.55273 z m 84.77344,16.45312 c -4.10484,0.12273 -8.66754,1.81412 -12.55859,5.16602 -5.45832,4.70203 -6.46617,4.83502 -9.74414,1.28125 -3.05541,-3.31249 -11.3872,-3.60483 -17.29883,-0.60547 -2.53682,1.28719 -5.28046,1.71315 -7.14063,1.10937 -3.08859,-1.00259 -10.86223,-0.85401 -14.86328,0.28321 -1.61333,0.45853 -3.06577,4.63733 -5.24414,15.07812 -4.55497,21.83169 -6.5485,27.83664 -10.53711,31.75 -3.97198,3.897 -9.76316,4.73613 -10.99219,1.59375 -0.42565,-1.08827 1.13739,-10.82279 3.47461,-21.63281 5.68041,-26.27286 5.85458,-24.88281 -3.13476,-24.88281 -4.24638,0 -7.97592,0.71516 -8.7793,1.68359 -1.85484,2.23597 -9.92383,40.06835 -9.92383,46.5293 0,5.67636 2.93289,10.644 7.35547,12.46094 3.94008,1.61865 11.5124,0.34218 17.17383,-2.89454 4.28534,-2.44996 4.73995,-2.47707 6.29492,-0.39062 1.38255,1.85503 3.02797,2.08346 9.38086,1.30469 l 7.70312,-0.94336 2.25977,-10.35352 c 6.42444,-29.4209 7.90279,-34.44439 11.03711,-37.51953 3.70356,-3.63367 7.17125,-4.06011 8.35742,-1.02734 0.45475,1.16262 -1.24822,12.0384 -3.78515,24.16797 -2.53697,12.12956 -4.19295,22.46516 -3.67969,22.96875 0.51326,0.50343 4.48523,0.38705 8.82617,-0.25782 l 7.89258,-1.17187 4.41015,-20.38477 c 2.42525,-11.21204 5.39597,-22.25755 6.60157,-24.54492 2.98412,-5.66173 6.80535,-7.57314 9.61914,-4.8125 2.6821,2.6315 2.67957,2.69464 -0.6211,17.34375 -3.78893,16.81625 -3.60538,22.89216 0.81836,27.23242 2.91999,2.86492 4.38611,3.33084 8.45117,2.6836 8.46637,-1.34797 17.56492,-13.00782 10.1504,-13.00782 -5.50039,0 -6.09263,-3.11057 -3.13477,-16.45117 3.95221,-17.82554 4.16965,-19.74265 2.78906,-24.64844 -1.35942,-4.83049 -5.88055,-7.26522 -11.1582,-7.10742 z m -373.48242,5.2168 c -3.60255,0.0913 -4.75102,0.86524 -7.07227,2.82422 -6.14109,5.18264 -4.85452,13.13849 2.13477,13.20312 2.66593,0.0246 4.83086,-2.33961 5.53125,-6.04101 0.39137,-2.06835 1.5946,-2.69531 5.18164,-2.69531 2.56974,-10e-6 4.88412,0.62661 5.14453,1.39257 0.26022,0.76592 -5.98249,11.67783 -13.87305,24.24805 -9.36453,14.91836 -13.87995,23.3172 -13.00586,24.18555 0.73648,0.73171 7.64748,2.04471 15.35938,2.91797 17.11034,1.93749 22.37825,1.45913 26.57617,-2.41016 4.17547,-3.84866 4.44736,-11.21123 0.49023,-13.28906 -3.60449,-1.89268 -7.89778,0.31349 -8.48632,4.36132 -0.48318,3.32297 -3.61187,4.41603 -8.91016,3.11133 -4.40731,-1.08529 -4.59096,-0.66646 11.23438,-25.65039 7.16466,-11.3111 13.02539,-21.16561 13.02539,-21.90039 0,-1.61223 -5.99851,-2.58555 -23.41211,-3.79492 -4.71229,-0.32726 -7.75645,-0.5177 -9.91797,-0.46289 z m 203.34765,3.52344 c -1.14399,-0.003 -2.62836,0.0657 -4.56445,0.16992 -4.52753,0.2437 -8.37503,0.58351 -8.55078,0.75586 -0.17579,0.1725 -2.29545,9.36979 -4.70899,20.4375 -4.23596,19.4248 -4.58237,20.31659 -9.99023,25.69531 -9.89053,9.83717 -22.21971,10.97079 -25.56055,2.34961 -2.1919,-5.65633 -0.44498,-8.43082 6.36524,-10.11328 12.98906,-3.20897 21.1582,-12.63316 21.1582,-24.4082 0,-8.38833 -3.30998,-11.09034 -13.50586,-11.02344 -18.48336,0.12109 -31.18132,14.90606 -32.80859,38.19922 -1.17842,16.86863 4.13458,23.02695 19.8164,22.96875 8.3133,-0.0309 17.46884,-3.18092 20.83008,-7.16602 2.02099,-2.39614 5.66797,-3.0355 5.66797,-0.99414 0,0.68164 -1.54572,8.24744 -3.43359,16.81445 -1.88788,8.56698 -3.43164,16.86475 -3.43164,18.43946 0,3.06569 -0.20809,3.06893 12.5957,-0.22266 5.39203,-1.38618 5.31784,-1.20913 9.98828,-23.55664 l 0.86133,-4.12305 10.11523,0.082 c 9.11849,0.0738 10.70373,-0.32199 16.06446,-4.01171 14.83642,-10.21176 21.33381,-43.01519 10.60547,-53.54102 -3.66342,-3.59441 -4.69996,-3.91426 -10.52149,-3.24805 -3.5523,0.40653 -7.79837,1.14475 -9.43555,1.64063 -2.40721,0.72914 -3.06509,0.29707 -3.43359,-2.25781 -0.32165,-2.22897 -0.69107,-2.87799 -4.12305,-2.88672 z m -137.70703,0.54101 c -4.08934,-0.1141 -8.5273,0.64073 -12.49804,2.41016 -11.28333,5.02806 -19.8125,21.1249 -19.8125,37.39648 0,11.59986 4.70404,18.25558 14.48632,20.49805 6.36756,1.45969 13.79385,0.63365 18.09571,-2.01172 3.11871,-1.91784 7.97264,-9.665 6.78515,-10.83008 -0.35973,-0.35293 -3.05954,0.064 -5.99804,0.92774 -11.4508,3.36601 -16.25271,-0.82741 -14.69532,-12.83399 1.91226,-14.74208 10.68929,-30.22919 15.99805,-28.23047 1.72097,0.64793 2.40039,2.4013 2.40039,6.19141 0,3.65167 0.6946,5.5467 2.24609,6.13086 5.15914,1.94237 8.76035,-4.72003 6.76563,-12.51758 -1.10962,-4.33769 -6.95786,-6.94068 -13.77344,-7.13086 z m 38.99024,2.55274 c -6.44674,0 -8.69018,0.62912 -11.99024,3.35351 -5.20138,4.29407 -6.1611,7.98921 -3.05078,11.75782 2.13116,2.58217 2.92187,2.77108 5.95313,1.41601 2.30759,-1.03158 3.64609,-2.84615 3.9375,-5.33984 0.34922,-2.98723 1.23078,-3.86599 4.21679,-4.20313 2.69265,-0.30399 3.77539,0.17745 3.77539,1.67774 0,1.15706 -6.17897,12.29616 -13.73046,24.7539 -7.55146,12.4577 -13.72852,23.33136 -13.72852,24.16406 0,0.83267 1.69873,1.76544 3.77539,2.07422 10.07263,1.49707 32.21529,0.88541 35.91602,-0.99218 4.71231,-2.39086 8.0964,-9.48355 6.05273,-12.6836 -3.25829,-5.10198 -11.41992,-2.70372 -11.41992,3.35547 0,2.48935 -0.73969,3.20313 -3.32031,3.20313 -4.62668,0 -7.66407,-1.32675 -7.66407,-3.34766 0,-0.94174 5.86962,-11.33428 13.04297,-23.09375 7.17336,-11.75947 13.0424,-22.05052 13.04297,-22.87109 0.001,-1.63367 -12.23191,-3.22461 -24.80859,-3.22461 z m 60.1914,7.43164 c 0.31083,-0.023 0.60236,0.0133 0.87305,0.11523 5.10622,1.92242 1.52105,13.61205 -6.10547,19.9082 -4.63124,3.82341 -8.18164,4.58228 -8.18164,1.74805 0,-7.6832 8.75163,-21.42714 13.41406,-21.77148 z m 48.32617,2.19726 c 4.506,2e-4 6.00445,4.38546 5.125,14.67774 -0.89508,10.47515 -3.75247,17.96658 -8.84179,23.17969 -3.7976,3.8899 -10.64447,5.07255 -11.6875,2.01953 -1.02629,-3.00397 5.90214,-32.5653 8.44531,-36.03321 1.35833,-1.85227 4.0664,-3.55536 6.01758,-3.78515 0.32732,-0.0385 0.64103,-0.0586 0.9414,-0.0586 z m 190.90235,16.49414 c -1.10363,-0.001 -2.20303,0.35884 -3.73633,1.08203 -7.78027,3.66974 -9.4702,13.79788 -2.82617,16.93946 v -0.002 c 4.06148,1.92053 4.44491,1.92664 8.39648,0.16016 7.41298,-3.31381 8.61642,-13.96092 1.93164,-17.08984 -1.5538,-0.72609 -2.66199,-1.08868 -3.76562,-1.08985 z"
       style="fill:#436db4;fill-opacity:1;stroke-width:1.35998"
       id="path923" />
    <path
       transform="scale(0.26458333)"
       d="m 84.439453,607.24219 c -22.722119,0.008 -38.143841,6.53411 -48.019531,20.32031 -3.758172,5.24632 -4.151847,6.78274 -4.123047,16.12305 0.04049,13.13404 3.484788,20.17696 12.658203,25.88476 3.510781,2.18446 7.094872,3.97266 7.964844,3.97266 1.127777,0 1.405132,-3.77046 0.964844,-13.13477 -0.523027,-11.12394 -0.167829,-14.30378 2.326172,-20.77539 7.450318,-19.33258 28.724403,-25.89903 56.375002,-17.40039 4.90846,1.50868 11.21997,4.28314 14.02539,6.16406 18.19627,12.19971 17.2976,43.95393 -1.53711,54.33985 -6.52181,3.59629 -16.27988,3.98746 -17.56445,0.70312 -0.47907,-1.2249 1.35119,-12.28748 4.0664,-24.58398 3.79074,-17.16726 4.56024,-22.7245 3.31641,-23.9375 -1.77436,-1.73038 -30.54963,-6.85706 -31.769533,-5.66016 -0.415366,0.40751 -7.582447,30.63786 -15.927735,67.17969 -12.390258,54.25364 -14.844591,66.73913 -13.380859,68.07031 2.250459,2.04669 25.044282,10.06641 28.611328,10.06641 1.613462,0 2.9339,-1.1845 3.38086,-3.03125 0.40346,-1.667 4.344632,-18.98016 8.757812,-38.47266 4.413181,-19.49253 8.722777,-36.12561 9.576167,-36.96289 1.1535,-1.13174 3.21149,-0.84645 8.02149,1.10938 13.84425,5.6293 15.22704,16.90315 6.01562,49.04882 -6.53891,22.81924 -7.07643,31.13494 -2.44921,37.875 4.1144,5.99309 12.52347,10.42863 22.47656,11.85547 11.0445,1.58329 10.89568,1.57545 11.80469,0.6836 0.44586,-0.43745 -0.74136,-3.62005 -2.63868,-7.07227 -4.2843,-7.79546 -3.8217,-14.63856 2.38672,-35.24023 4.85261,-16.10268 6.67621,-34.532 4.15625,-42.02344 -0.87539,-2.60239 -3.86999,-7.34372 -6.65429,-10.53516 -4.82594,-5.5316 -4.93736,-5.87047 -2.36329,-7.26757 6.06767,-3.2933 16.5342,-15.08648 18.17579,-20.48047 9.9031,-32.54011 -30.45638,-66.83726 -78.632817,-66.81836 z M 1164.4941,642.66016 c -1.9175,-0.049 -6.4768,1.34752 -16.2441,4.75195 -12.3428,4.30208 -14.1582,5.34386 -15.4004,8.83984 -1.2103,3.4063 -1.7872,3.76424 -4.1094,2.54493 -7.3817,-3.87602 -22.3951,0.44939 -34.7929,10.02539 -20.6088,15.91801 -35.2993,44.57601 -40.0215,78.07226 -1.698,12.04471 -2.7959,15.75084 -5.9727,20.18555 -7.4794,10.44109 -19.0081,14.92016 -22.4004,8.70117 -1.238,-2.26957 0.023,-10.65913 6.3262,-42.09766 4.3297,-21.59414 8.4504,-39.98872 9.1582,-40.87695 0.7079,-0.88819 3.5548,-2.31913 6.3262,-3.17969 5.6453,-1.7529 8.4726,-4.55854 8.4726,-8.41211 0,-2.30585 -0.6783,-2.49106 -6.1797,-1.68164 -7.4514,1.09637 -7.3131,1.92857 -3.1582,-18.98828 1.661,-8.36186 2.6133,-15.60306 2.1153,-16.0918 -1.0324,-1.01287 -28.0425,9.7248 -31.3106,12.44727 -1.2502,1.04149 -3.1932,7.283 -4.6504,14.93945 -3.0322,15.932 -4.1974,19.21485 -6.8203,19.21485 -2.231,0 -6.28903,4.99624 -6.28903,7.74219 0,0.96479 1.58483,2.34522 3.52343,3.06835 2.4433,0.9114 3.3119,2.03844 2.8301,3.67188 -0.3823,1.29596 -3.2383,15.08569 -6.34572,30.64453 -3.10745,15.5588 -7.24973,32.0717 -9.20703,36.69531 -5.94327,14.03951 -15.64421,22.86602 -23.82617,21.67774 -6.60166,-0.95876 -6.51813,-2.83621 1.99609,-44.85938 4.42946,-21.86233 8.80155,-40.36022 9.7168,-41.10547 0.91529,-0.74528 3.65643,-1.74518 6.08984,-2.22265 4.74792,-0.93169 9.13503,-5.99126 7.91016,-9.12305 -0.54754,-1.40009 -2.24947,-1.71864 -6.33008,-1.18164 -6.77185,0.89114 -6.71903,1.26619 -2.62891,-18.88281 1.73243,-8.5338 2.44179,-15.00711 1.7168,-15.65821 -1.12577,-1.01106 -25.71695,7.30618 -30.87109,10.44141 -1.30515,0.79393 -3.13779,5.82433 -4.57813,12.56641 -4.16012,19.47269 -4.75678,21.11296 -8.03711,22.11718 -3.72268,1.13965 -5.06924,2.98058 -5.0957,6.97071 -0.0149,2.13978 0.78601,3.03125 2.72461,3.03125 1.80737,0 2.74609,0.89962 2.74609,2.6289 0,1.44503 -2.82322,16.14427 -6.27343,32.66602 -7.13912,34.18602 -12.48311,47.71365 -21.04688,53.27734 -8.16952,5.30756 -15.24414,3.49351 -15.24414,-3.9082 0,-2.03792 3.70742,-21.39526 8.23828,-43.01562 4.5309,-21.62041 8.23828,-40.74559 8.23828,-42.5 0,-2.15547 -0.77877,-3.1749 -2.40234,-3.14844 -5.1913,0.0879 -28.01661,5.01868 -29.36719,6.34375 -0.78792,0.77306 -5.09284,18.89982 -9.56641,40.28125 -8.54857,40.85779 -11.89132,50.71963 -18.8164,55.5039 -8.82433,6.09634 -13.99024,4.16815 -13.99024,-5.22265 0,-2.88159 3.70739,-22.96611 8.23829,-44.63281 4.53089,-21.66675 8.23828,-39.87757 8.23828,-40.4668 0,-0.58923 -2.0067,-1.05809 -4.46094,-1.04297 -6.78335,0.0409 -27.16431,3.5153 -28.4707,4.85351 -0.63421,0.64959 -4.57082,17.24513 -8.7461,36.87891 -10.49665,49.35938 -16.08866,61.64588 -32.79297,72.04102 -3.0726,1.91206 -3.89449,2.00149 -4.48632,0.48828 -0.39856,-1.01892 4.22874,-25.04527 10.2832,-53.39063 6.05442,-28.3454 11.00781,-51.91275 11.00781,-52.37109 0,-0.45831 -5.09619,-0.41995 -11.32617,0.084 -18.73591,1.51529 -21.71431,2.23058 -23.27344,5.58789 l -1.41211,3.03907 -4.71679,-2.73047 c -6.73493,-3.89874 -22.00699,-2.87492 -32.54102,2.18164 -24.17227,11.60319 -39.59192,38.79041 -44.22656,77.97851 -0.59256,5.01049 -1.8876,7.59716 -5.85156,11.68555 -2.79973,2.8876 -6.88613,5.69165 -9.08204,6.23242 -5.67122,1.3965 -10.94244,-1.77667 -11.43359,-6.88281 -0.21158,-2.19957 3.57476,-22.18325 8.41406,-44.41016 5.40015,-24.80284 8.31456,-40.9278 7.54297,-41.74414 -1.76799,-1.87052 -30.27485,-0.8926 -32.17187,1.10352 -0.82307,0.86608 -5.00926,17.9411 -9.30469,37.94531 -4.94506,23.02968 -9.08061,38.94112 -11.27149,43.375 -3.41401,6.90924 -10.06028,12.5293 -14.8164,12.5293 -3.49656,0 -7.73714,-5.00322 -7.70313,-9.0918 0.0165,-2.03747 3.9447,-21.58887 8.72852,-43.44531 4.78382,-21.85644 8.44103,-40.19238 8.12695,-40.74805 -0.31396,-0.55566 -7.92401,-1.00976 -16.91211,-1.00976 h -16.34375 l -1.3457,5.05078 c -0.74067,2.77837 -4.24225,18.38779 -7.78125,34.6875 -7.14225,32.89531 -12.32627,46.63333 -19.48242,51.63281 -7.55006,5.27463 -15.6578,3.16306 -17.64258,-4.5957 -0.4944,-1.93263 2.89673,-20.30565 8.2168,-44.51953 4.98206,-22.67558 8.78043,-41.66857 8.4414,-42.20704 -0.33921,-0.53842 -7.59014,-1.37243 -16.11328,-1.85156 -14.63879,-0.82291 -15.61486,-0.71401 -17.6543,1.93555 l -2.16015,2.80469 -5.10547,-3.40039 c -9.4543,-6.29477 -26.35565,-6.02553 -39.6543,0.63086 -14.13203,7.07357 -28.35435,27.94712 -33.38672,49 -3.02377,12.6503 -3.06537,30.43107 -0.0918,39.21484 4.98361,14.72115 16.86775,22.83987 33.1289,22.63086 9.56799,-0.1231 17.29714,-3.4707 24.63086,-10.66602 5.69507,-5.58757 7.05286,-5.81401 8.19141,-1.36328 1.17985,4.61223 8.1894,12.14532 13.19531,14.17969 5.60576,2.27815 22.64981,1.11519 28.68359,-1.95703 2.57296,-1.31006 7.64789,-5.10881 11.2793,-8.44141 l 6.60352,-6.05859 2.25781,5.5332 c 2.9421,7.21433 8.5362,11.69867 16.67383,13.36328 12.84574,2.62768 27.80866,-2.67343 35.51172,-12.58203 2.00307,-2.57662 4.34102,-4.66317 5.19531,-4.63672 0.85432,0.0268 2.78853,2.5728 4.29883,5.65625 4.28111,8.74031 8.69455,11.14377 20.35742,11.08594 12.74143,-0.0632 20.6731,-3.54484 30.44141,-13.36133 l 7.39648,-7.43359 3.85547,5.58398 c 5.08743,7.37091 9.35656,10.27937 17.16016,11.69336 9.66904,1.75204 19.63801,-0.31537 28.10351,-5.83008 l 7.33008,-4.77539 v 3.99024 c 0,3.66448 -1.01117,4.50541 -12.35156,10.25195 -22.0582,11.17761 -31.61979,26.14434 -25.58203,40.04688 2.46557,5.67734 7.26669,9.85914 13.2207,11.51367 6.52637,1.81353 9.61184,1.8305 18.125,0.0976 9.41934,-1.91709 17.50817,-6.54725 23.55859,-13.48242 6.78667,-7.77902 10.24845,-15.69222 13.71485,-31.35156 l 2.99609,-13.53906 8.2168,-4.44336 c 4.51895,-2.44381 11.43346,-7.76979 15.36523,-11.83399 3.93177,-4.0642 7.45515,-7.38867 7.83008,-7.38867 0.37493,0 1.74253,2.19246 3.03906,4.87305 1.29649,2.68063 4.26009,6.01275 6.58594,7.4043 4.74962,2.84159 14.94808,3.34696 23.04492,1.14062 6.29923,-1.71651 17.94543,-10.59868 22.04883,-16.81445 3.78746,-5.73721 5.66728,-5.8798 7.89648,-0.59961 2.75947,6.5362 7.54951,9.38476 15.78321,9.38476 13.42295,0 27.04278,-7.28477 36.2832,-19.40625 2.59457,-3.40354 5.08033,-6.18945 5.52344,-6.18945 0.44307,0 1.99444,2.16992 3.44922,4.82031 3.65094,6.6514 8.97697,9.07233 18.47265,8.39844 11.4093,-0.80969 19.91246,-5.45449 31.91602,-17.43359 l 10.5332,-10.51172 2.74805,4.57031 c 4.34086,7.21833 8.64927,9.30587 17.37887,8.42187 13.4563,-1.36255 28.0337,-11.28323 40.0782,-27.27343 l 3.0097,-3.99414 3.6328,4.40429 c 7.1579,8.67833 15.7164,10.44002 28.1661,5.79883 9.1042,-3.39409 17.8827,-10.57672 24.9648,-20.42969 3.1464,-4.37744 6.1434,-7.95898 6.6582,-7.95898 0.5149,0 1.7149,1.84585 2.668,4.10352 2.3974,5.67866 8.4197,8.49649 15.8301,7.40625 8.76,-1.28886 16.0436,-7.17284 21.0527,-17.00782 5.7649,-11.31896 5.6582,-13.36335 -0.6758,-12.98437 -8.8776,0.53114 -8.875,0.31091 0.5781,-49.14844 4.7149,-24.66875 8.5579,-45.30566 8.5352,-45.86133 -0.021,-0.56606 -0.3471,-0.88788 -1.2188,-0.91015 z m -877.67965,15.18945 c -3.5628,0.0741 -6.93945,0.36887 -10.30859,0.85742 -25.61564,3.71445 -38.34564,15.23376 -41.88477,37.90235 -1.94835,12.47947 -0.24381,19.44809 6.56446,26.84179 4.45624,4.83946 14.43446,9.57318 16.30664,7.73633 0.39836,-0.39084 0.0353,-3.66953 -0.80664,-7.28711 -1.60959,-6.91608 -0.84347,-19.18525 1.73633,-27.80469 3.93421,-13.14474 17.61833,-21.05416 33.13281,-19.15234 4.03549,0.4947 8.11439,1.37115 9.06445,1.94726 1.32683,0.80455 -1.96699,17.31776 -14.20508,71.20899 -8.76312,38.5889 -15.93359,71.35573 -15.93359,72.81641 0,2.15285 1.49462,2.95316 7.89453,4.22656 4.34211,0.86392 10.05815,2.05834 12.70117,2.6543 2.64302,0.59591 6.47979,1.14429 8.52735,1.21874 4.50902,0.16389 2.27668,8.07947 21.05273,-74.62695 8.07354,-35.56305 15.10173,-65.11777 15.61914,-65.67578 0.5174,-0.55797 6.16615,0.71981 12.55273,2.83789 31.6031,10.4809 47.29383,7.78457 52.02735,-8.9375 2.65742,-9.38785 3.06571,-9.11827 -14.01367,-9.20898 -12.44839,-0.0662 -17.97825,-0.78613 -28.49024,-3.70899 -37.14835,-10.32886 -56.09827,-14.16682 -71.53711,-13.8457 z m 835.78715,13.00391 c 6.7756,-0.0117 6.8704,2.36172 1.2754,31.41601 -7.7531,40.26066 -10.9926,48.39997 -21.8614,54.90235 -10.9816,6.56985 -15.9757,-0.74438 -13.9922,-20.49415 3.2946,-32.80372 20.629,-65.80154 34.5782,-65.82421 z m -757.48246,56.02929 c -0.81544,0.003 -1.32968,0.0585 -1.45117,0.17774 -1.19189,1.16938 -24.53711,104.11666 -24.53711,108.20312 0,2.87403 0.78591,3.13259 17.84766,5.86719 6.41876,1.02879 12.05929,1.93222 12.5332,2.00781 2.36801,0.37682 4.28125,-6.23185 12.05664,-41.62305 9.34019,-42.51367 9.91497,-44.42216 14.14453,-47.01367 8.53501,-5.22962 15.40319,-4.08748 16.89063,2.80664 2.05912,9.5441 10.57355,13.23598 19.76562,8.57227 8.20407,-4.16243 9.35899,-18.98291 2.0625,-26.45508 -7.45259,-7.63204 -18.79107,-7.90464 -31.23437,-0.75 -3.32232,1.91025 -6.4379,3.08417 -6.92383,2.60742 -0.48545,-0.47678 -0.49834,-2.87506 -0.0293,-5.32812 0.59974,-3.13656 0.29881,-4.65765 -1.01367,-5.12696 -3.92942,-1.40501 -24.40323,-3.96575 -30.11133,-3.94531 z m 388.27148,22.26758 c 2.23777,-0.0755 3.38192,0.73666 5.48438,3.13477 1.7814,2.03191 2.95148,4.69403 2.59961,5.91796 -0.3518,1.22401 -3.23642,14.35003 -6.4082,29.16797 -6.98827,32.64794 -9.45879,38.15239 -19.41407,43.23438 -11.21351,5.72428 -18.66133,-3.61526 -16.75195,-21.00781 3.27016,-29.78805 17.96696,-57.55314 31.8125,-60.10157 1.06524,-0.19606 1.93184,-0.32053 2.67773,-0.3457 z m -251.86132,4.88477 c 0.40007,-0.0159 0.79531,-0.0142 1.18554,0.004 5.20319,0.23712 9.41407,3.43484 9.41407,8.64258 0,3.718 -9.92535,50.52287 -11.83008,55.78711 -1.84328,5.09435 -7.84046,11.6571 -12.33594,13.5 -6.51836,2.67213 -8.49248,2.37367 -12.89453,-1.94531 -5.08513,-4.98917 -6.37583,-13.35599 -4.1543,-26.92578 3.28332,-20.05573 12.5667,-39.45214 22.05664,-46.08204 2.74942,-1.92076 5.7581,-2.86897 8.5586,-2.98046 z m -309.66016,18.14062 c -0.93993,-0.0356 -1.88657,0.004 -2.83398,0.12891 -8.3023,1.09255 -11.23243,4.79704 -11.23243,14.19922 0,6.52452 0.64974,8.64644 3.93555,12.87304 2.16413,2.78378 5.87152,6.22076 8.23828,7.63672 4.6914,2.80668 13.23837,3.39397 17.42188,1.19727 1.45283,-0.76286 3.64369,-3.28611 4.86718,-5.60742 6.37357,-12.0925 -6.29747,-29.89348 -20.39648,-30.42774 z m 543.64063,95.34766 c 0.9849,0 1.78906,0.79853 1.78906,1.77539 0,4.43958 -4.517,15.9933 -7.70703,19.71289 -8.54933,9.96854 -19.49191,0.21719 -11.26758,-10.04102 3.27322,-4.08272 14.3306,-11.44726 17.18555,-11.44726 z"
       style="fill:#436db4;fill-opacity:1;stroke:none;stroke-width:1.35998"
       id="path905" />
    <path
       id="path941"
       d="m 36.703476,148.47209 c 0.292565,-0.28044 18.432179,-10.08025 40.310254,-21.77736 46.10069,-24.64773 49.97047,-26.755592 57.24614,-31.181843 5.11851,-3.113913 7.85174,-5.019218 5.59997,-3.903688 -0.4995,0.247452 -4.69142,2.511611 -9.31538,5.031463 -4.62396,2.519849 -8.53155,4.581548 -8.68352,4.581548 -0.15198,0 -0.86423,-0.60966 -1.58279,-1.354787 -0.71856,-0.745131 -1.76972,-1.701014 -2.33592,-2.124191 -0.5662,-0.423172 -0.93876,-0.91337 -0.82792,-1.089329 0.11084,-0.175959 1.91376,-0.918449 4.0065,-1.649982 11.5364,-4.032629 23.75476,-11.517737 33.182,-20.327665 l 4.08972,-3.821908 4.01299,3.772837 c 9.01926,8.479491 20.06225,15.370945 31.57315,19.703433 2.30251,0.866619 4.5819,1.738189 5.06533,1.936816 0.8619,0.354142 0.8302,0.405641 -1.63473,2.655868 -1.38252,1.262098 -2.5717,2.295668 -2.64261,2.296818 -0.0709,0.001 -3.01343,-1.578518 -6.53891,-3.510373 -13.59657,-7.450496 -15.33429,-8.155901 -6.04669,-2.454567 7.77272,4.7714 12.41564,7.30658 56.99367,31.12034 21.95593,11.72895 40.26485,21.60827 40.6865,21.95405 0.74866,0.61396 0.71329,0.62897 -1.50841,0.64055 l -2.27503,0.0119 -40.71816,-22.83512 c -22.39499,-12.55932 -40.92415,-22.75757 -41.17591,-22.66279 -0.55971,0.21073 -1.28612,2.90554 -1.28612,4.7712 0,3.36726 2.15331,8.56791 5.17541,12.4996 1.78322,2.31994 1.96828,2.73304 1.38321,3.08781 -0.73949,0.4484 -8.75703,0.79558 -12.05945,0.5222 -10.37338,-0.85872 -17.8657,-5.40233 -22.68504,-13.757 -3.21451,-5.5726 -4.72083,-11.926656 -5.2381,-22.095646 -0.19675,-3.868103 -0.5218,-7.19388 -0.72232,-7.390615 -0.24393,-0.239326 -0.36458,6.863835 -0.36458,21.463791 v 21.82149 l -0.999,0.43449 c -1.43506,0.62414 -19.65167,0.48128 -29.87915,-0.23432 -4.49549,-0.31454 -8.6283,-0.57242 -9.18402,-0.57306 -0.55573,-7.1e-4 -1.09676,-0.22196 -1.20231,-0.49181 -0.10554,-0.26986 0.53259,-1.59306 1.41808,-2.94044 3.76546,-5.72963 5.12166,-9.46571 4.91234,-13.53262 -0.12242,-2.3785 0.86978,-4.04656 -3.85278,-1.90002 -4.72256,2.14654 -15.15988,8.10769 -38.141356,20.9876 L 40.73169,148.98198 h -2.280075 c -1.983278,0 -2.210831,-0.0664 -1.748139,-0.50989 z"
       style="fill:#fcb02d;fill-opacity:1;stroke:none;stroke-width:0.359828" />
  </g>
</svg>
